<svg width="500" height="500" viewBox="0 0 500 500" fill="none" xmlns="http://www.w3.org/2000/svg">
<g clip-path="url(#clip0_1_7763)">
<rect width="500" height="500" fill="white"/>
<mask id="mask0_1_7763" style="mask-type:alpha" maskUnits="userSpaceOnUse" x="0" y="0" width="500" height="500">
<rect width="500" height="500" rx="2" fill="white"/>
</mask>
<g mask="url(#mask0_1_7763)">
<path fill-rule="evenodd" clip-rule="evenodd" d="M412.398 452.493C412.665 452.493 412.932 452.493 413.465 452.763C413.199 452.763 412.932 452.493 412.398 452.493Z" fill="#666666"/>
<path fill-rule="evenodd" clip-rule="evenodd" d="M105.129 444.549C105.396 444.549 105.93 444.279 106.196 444.279C105.663 444.279 105.396 444.549 105.129 444.549Z" fill="#666666"/>
<path opacity="0.1" fill-rule="evenodd" clip-rule="evenodd" d="M376.359 433.882C362.478 427.312 333.38 418.005 330.444 395.834C328.842 383.242 328.575 370.925 328.575 368.187C328.575 356.143 328.842 343.826 329.91 330.961C314.16 361.071 288.265 380.231 250.625 379.41C224.197 378.863 200.972 356.417 185.756 326.581C187.625 342.183 188.96 357.238 189.226 372.293C189.226 372.841 188.96 377.768 188.96 382.969C188.159 405.14 164.4 421.016 143.311 428.407C197.502 524.759 318.164 526.675 376.359 433.882Z" fill="#0A48BB"/>
<path opacity="0.1" fill-rule="evenodd" clip-rule="evenodd" d="M250.888 379.955C288.529 380.776 314.69 361.615 330.173 331.506C335.512 321.104 339.783 309.607 342.72 297.016C342.453 290.447 344.588 280.045 345.656 265.811C346.457 255.136 347.792 245.282 349.927 237.618C349.927 237.618 349.927 237.618 349.927 237.344C349.66 237.618 349.393 238.165 349.126 238.439C347.525 211.34 338.448 163.985 334.711 152.215C326.169 144.824 315.758 130.043 225.795 132.781C215.384 129.77 186.82 151.941 186.286 152.489C183.083 157.69 178.812 168.091 176.142 183.146C167.333 233.785 171.871 219.552 168.934 238.165C168.401 237.891 167.333 236.523 165.731 234.607C165.731 235.701 165.998 237.07 165.998 238.165C167.867 245.556 168.934 254.589 169.468 264.169C170.002 271.833 170.536 278.403 171.337 283.877C174.274 298.658 179.346 313.166 186.019 326.305C201.236 356.688 224.46 379.408 250.888 379.955Z" fill="#0A48BB"/>
<path fill-rule="evenodd" clip-rule="evenodd" d="M164.666 234.063C164.933 234.336 165.2 234.884 165.734 235.157C167.335 237.074 168.67 238.442 168.937 238.716C171.874 220.103 167.335 234.336 176.145 183.697C178.814 168.368 183.086 158.24 186.289 153.04C192.162 143.459 332.311 170.284 332.578 170.832C336.315 182.328 343.79 215.723 349.129 238.99C349.396 238.442 349.663 238.168 349.93 237.895C352.866 227.767 357.138 221.471 363.011 222.019C363.544 222.019 364.078 222.292 364.612 222.292C366.481 201.763 365.947 179.591 364.879 156.872C365.413 91.4513 294.404 65.9948 243.15 69.2795C153.454 75.0277 136.636 137.985 150.517 222.019C159.06 221.471 162.53 227.493 164.666 234.063Z" fill="#84A0D9"/>
<path fill-rule="evenodd" clip-rule="evenodd" d="M339.519 160.975C339.519 160.975 339.519 161.246 339.248 161.246C339.519 161.246 339.519 161.246 339.519 160.975Z" fill="#666666"/>
<path fill-rule="evenodd" clip-rule="evenodd" d="M331.784 170.011C332.051 170.285 332.318 170.285 332.852 170.559C332.585 170.285 332.318 170.285 331.784 170.011Z" fill="#666666"/>
<path fill-rule="evenodd" clip-rule="evenodd" d="M172.947 203.682H172.676C172.676 203.682 172.947 203.953 172.947 203.682Z" fill="#666666"/>
<path opacity="0.1" fill-rule="evenodd" clip-rule="evenodd" d="M166.801 238.719C166.267 237.077 166 235.434 165.466 234.066C162.53 225.306 158.525 219.832 153.186 220.106C151.852 220.106 150.517 220.653 149.449 221.474C141.707 226.675 138.771 246.109 144.911 264.449C151.852 285.526 156.39 304.687 166.534 304.139C173.742 303.866 173.475 297.022 171.873 284.431C171.339 278.957 170.538 272.387 170.004 264.723C169.737 254.869 168.403 245.836 166.801 238.719ZM158.258 264.997C159.86 271.566 162.797 272.661 162.53 278.135C161.729 299.486 156.39 281.968 153.186 275.672C149.182 267.734 148.114 251.858 148.915 245.836C149.716 239.814 152.119 228.044 156.657 228.044C161.195 228.317 167.869 244.467 161.462 252.131C159.86 253.774 156.657 258.427 158.258 264.997Z" fill="#0A48BB"/>
<path opacity="0.2" fill-rule="evenodd" clip-rule="evenodd" d="M156.662 227.763C151.857 227.49 149.722 239.26 148.921 245.556C148.12 251.578 149.188 267.454 153.192 275.392C156.396 281.688 161.735 299.206 162.535 277.855C162.802 272.381 159.866 271.56 158.264 264.717C156.662 258.147 159.866 253.494 161.468 251.578C167.874 244.461 161.201 228.037 156.662 227.763Z" fill="#0A48BB"/>
<path opacity="0.1" fill-rule="evenodd" clip-rule="evenodd" d="M350.195 237.343C347.793 245.281 346.458 255.135 345.657 265.81C344.856 280.044 342.721 290.446 342.721 297.015C342.721 302.216 344.322 304.953 348.861 305.227C359.272 306.048 363.81 286.887 371.017 265.81C377.958 245.828 373.954 224.751 364.878 221.74C364.344 221.467 363.81 221.467 363.276 221.467C357.403 220.919 353.132 227.215 350.195 237.343ZM362.742 276.759C359.539 283.055 353.933 300.574 353.132 279.223C352.865 273.748 356.068 272.927 357.67 266.358C359.272 259.788 356.068 255.135 354.467 253.219C348.327 245.555 355 229.405 359.539 229.405C364.344 229.131 366.479 241.175 367.28 247.197C368.081 252.945 366.746 268.821 362.742 276.759Z" fill="#0A48BB"/>
<path opacity="0.2" fill-rule="evenodd" clip-rule="evenodd" d="M359.542 229.135C355.004 229.409 348.063 245.559 354.47 252.95C356.072 254.866 359.275 259.519 357.673 266.088C356.072 272.658 353.135 273.753 353.135 278.954C353.669 300.304 359.275 282.786 362.746 276.49C366.75 268.552 368.085 252.676 367.284 246.654C366.483 240.906 364.347 228.862 359.542 229.135Z" fill="#0A48BB"/>
<mask id="mask1_1_7763" style="mask-type:alpha" maskUnits="userSpaceOnUse" x="143" y="326" width="234" height="177">
<path fill-rule="evenodd" clip-rule="evenodd" d="M376.359 433.882C362.478 427.312 333.38 418.005 330.444 395.834C328.842 383.242 328.575 370.925 328.575 368.187C328.575 356.143 328.842 343.826 329.91 330.961C314.16 361.071 288.265 380.231 250.625 379.41C224.197 378.863 200.972 356.417 185.756 326.581C187.625 342.183 188.96 357.238 189.226 372.293C189.226 372.841 188.96 377.768 188.96 382.969C188.159 405.14 164.4 421.016 143.311 428.407C197.502 524.759 318.164 526.675 376.359 433.882Z" fill="#E2E8F6"/>
</mask>
<g mask="url(#mask1_1_7763)">
<path opacity="0.2" fill-rule="evenodd" clip-rule="evenodd" d="M363.546 416.555C282.965 426.825 199.225 368.002 184.689 321.628C184.689 321.939 185.005 322.251 185.005 322.562C185.005 322.873 185.321 322.873 185.321 323.184V323.496L185.637 324.118L185.953 324.741V325.052L186.269 325.674V325.985C186.585 326.297 186.585 326.608 186.901 326.919C186.901 327.23 187.217 327.23 187.217 327.542V327.853L187.533 328.475V328.787C187.533 329.098 187.849 329.098 187.849 329.409V329.72L188.165 330.343V330.654L188.481 331.276L188.797 331.899L189.429 332.521L189.745 333.144V333.455L190.061 333.766L190.377 334.389L198.909 344.037L199.225 344.348L199.541 344.659C199.857 344.971 199.857 344.971 200.173 345.282L200.489 345.593L200.805 345.904L201.121 346.216L201.437 346.527L201.753 346.838L202.069 347.149L202.385 347.461L202.701 347.772L203.017 348.083L203.333 348.394L203.649 348.706L203.965 349.017L204.281 349.328L204.597 349.639L204.913 349.95L205.229 350.262L205.545 350.573L205.861 350.884L206.177 351.195L206.493 351.507L206.809 351.818L207.125 352.129L207.441 352.44L207.757 352.752L208.073 353.063L208.389 353.374L208.705 353.685L209.021 353.996L209.337 354.308L209.653 354.619L209.969 354.93L210.285 355.241L210.601 355.553L210.917 355.864L211.233 356.175L211.549 356.486L211.865 356.798L212.181 357.109H212.497L212.813 357.42L213.129 357.731H213.445H213.761L214.077 358.043L214.393 358.354C214.709 358.354 214.709 358.665 215.025 358.665H215.341H215.657H215.973L216.605 358.976C216.605 358.976 216.921 358.976 216.921 359.287L217.237 359.599L217.553 359.91L217.869 360.221L218.185 360.532C218.185 360.532 218.185 360.532 218.501 360.532H218.817L219.133 360.844H219.449H219.765L220.397 361.155H220.713H221.029L221.345 361.466H221.661C221.661 361.466 221.977 361.466 221.977 361.777L222.609 362.089H222.925C223.241 362.089 223.241 362.089 223.557 362.4C223.873 362.4 223.873 362.4 224.189 362.711H224.505C224.821 362.711 224.821 362.711 225.137 363.022H225.453H225.769H226.085C226.401 363.022 226.401 363.022 226.717 363.022C227.033 363.022 227.033 363.022 227.349 363.022H227.665C227.981 363.022 228.297 363.022 228.297 363.022H228.613C228.929 363.022 229.245 363.022 229.561 363.022H229.877C230.193 363.022 230.193 363.022 230.509 363.022H230.825C231.141 363.022 231.773 363.022 232.089 363.333C232.405 363.333 232.721 363.333 233.037 363.333H233.353C233.985 363.333 234.301 363.333 234.933 363.333C235.565 363.333 235.881 363.333 236.513 363.333C237.145 363.333 237.461 363.333 238.093 363.333C282.649 364.267 313.618 342.481 331.946 308.245C330.682 322.873 330.366 336.879 330.366 350.573C330.366 353.685 330.366 367.691 332.578 382.008C356.594 406.595 359.438 411.886 363.546 416.555Z" fill="#0A48BB"/>
</g>
<path fill-rule="evenodd" clip-rule="evenodd" d="M499.336 490.044C496.998 488.132 494.66 486.221 492.063 484.309C452.32 456.182 374.652 435.975 345.56 417.951C314.129 518.444 182.172 497.144 166.067 416.313C131.779 429.421 40.345 452.086 5.5375 485.402C-1.92492 491.301 -0.962656 499.195 -2.88916 485.402C-19.3608 582.614 149.962 625.491 253.605 625.491C355.43 625.217 514.766 579.223 499.336 490.044Z" fill="#84A0D9"/>
</g>
</g>
<defs>
<clipPath id="clip0_1_7763">
<rect width="500" height="500" fill="white"/>
</clipPath>
</defs>
</svg>
