<svg width="500" height="500" viewBox="0 0 500 500" fill="none" xmlns="http://www.w3.org/2000/svg">
<g clip-path="url(#clip0_1_7785)">
<rect width="500" height="500" fill="white"/>
<mask id="mask0_1_7785" style="mask-type:alpha" maskUnits="userSpaceOnUse" x="0" y="0" width="500" height="500">
<rect width="500" height="500" fill="white"/>
</mask>
<g mask="url(#mask0_1_7785)">
<path fill-rule="evenodd" clip-rule="evenodd" d="M237.562 609.74C111.05 627.574 122.066 366.841 129.884 264.83C137.703 167.813 179.281 74.0064 238.628 83.6368C326.761 56.5291 376.513 156.756 383.265 261.264C389.661 364.701 420.223 620.441 237.562 609.74Z" fill="#84A0D9"/>
<path fill-rule="evenodd" clip-rule="evenodd" d="M202.38 286.588C202.38 286.588 213.397 363.275 200.603 384.675C179.637 411.426 144.455 419.273 94.7026 443.528C202.38 695.344 343.818 638.632 420.579 446.738C343.108 402.866 339.199 405.72 320.008 385.032C309.347 373.618 305.438 344.727 304.017 282.308L202.38 286.588Z" fill="#DCE5F6"/>
<path fill-rule="evenodd" clip-rule="evenodd" d="M203.446 296.575L304.727 310.842C306.86 353.644 311.124 375.402 320.008 384.675C320.364 385.032 320.364 385.032 320.719 385.389C251.066 407.503 216.95 360.778 205.934 322.256C205.223 312.626 204.157 303.352 203.446 296.575Z" fill="#B2C6EA"/>
<path fill-rule="evenodd" clip-rule="evenodd" d="M171.463 212.042C163.645 212.042 159.38 229.163 163.645 245.927C167.909 262.691 170.397 277.671 177.86 277.671C185.678 277.671 182.124 266.971 182.124 247.353C182.479 228.093 179.281 212.042 171.463 212.042Z" fill="#DCE5F6"/>
<path fill-rule="evenodd" clip-rule="evenodd" d="M173.95 218.463C170.397 218.106 168.264 227.023 167.554 231.66C166.843 236.297 166.843 248.78 169.331 255.201C171.463 260.194 174.661 274.105 176.083 257.697C176.438 253.417 174.306 252.704 173.595 247.354C172.884 242.003 175.372 238.793 176.438 237.367C181.413 231.66 177.149 218.819 173.95 218.463Z" fill="#B2C6EA"/>
<path fill-rule="evenodd" clip-rule="evenodd" d="M344.173 212.398C351.992 212.398 356.256 229.876 351.992 246.283C347.727 263.047 345.24 278.028 337.421 278.028C329.603 278.028 333.157 267.327 333.157 247.71C333.512 228.092 336.711 212.398 344.173 212.398Z" fill="#DCE5F6"/>
<path fill-rule="evenodd" clip-rule="evenodd" d="M342.041 218.463C345.595 218.106 347.727 227.023 348.438 231.66C349.149 236.297 349.149 248.78 346.306 255.201C344.174 260.194 340.975 274.105 339.554 257.697C339.198 253.417 341.331 252.704 342.397 247.354C343.108 242.003 340.62 238.793 339.554 237.367C334.223 231.66 338.488 218.819 342.041 218.463Z" fill="#B2C6EA"/>
<path fill-rule="evenodd" clip-rule="evenodd" d="M257.463 111.458C344.529 111.458 337.066 163.533 337.066 234.869C336.711 306.206 288.38 353.644 256.042 350.791C226.901 349.721 178.215 308.346 178.57 237.366C178.57 182.794 172.529 138.566 210.199 120.375C221.57 114.311 237.207 111.458 257.463 111.458Z" fill="#DCE5F6"/>
<path fill-rule="evenodd" clip-rule="evenodd" d="M177.86 220.959C188.521 178.157 188.165 164.603 227.256 132.859C273.81 183.507 328.182 166.387 337.422 228.449C348.793 219.889 345.24 198.488 344.884 188.857C343.463 141.776 300.108 90.7704 256.752 96.1206C194.917 108.604 183.901 126.795 164.355 201.698L177.86 220.959Z" fill="#84A0D9"/>
<path fill-rule="evenodd" clip-rule="evenodd" d="M473.5 500.5L471.752 491.323C467.843 470.992 445.099 449.234 423.777 440.674C395.347 426.763 374 421 348 407C495.5 482.5 13.5 484 172 408C134.686 421.554 128.463 425.693 89.7273 440.674C89.7273 440.674 48.5042 454.228 37.843 495.603L36 500.5C207.882 500.5 301.618 500.5 473.5 500.5Z" fill="white"/>
</g>
</g>
<defs>
<clipPath id="clip0_1_7785">
<rect width="500" height="500" fill="white"/>
</clipPath>
</defs>
</svg>
